<svg width="24" height="25" viewBox="0 0 24 25" fill="none" xmlns="http://www.w3.org/2000/svg">
<mask id="mask0_37_5234" style="mask-type:alpha" maskUnits="userSpaceOnUse" x="0" y="0" width="24" height="25">
<rect x="24" y="24.5" width="24" height="24" transform="rotate(-180 24 24.5)" fill="#D9D9D9"/>
</mask>
<g mask="url(#mask0_37_5234)">
<path d="M11 3.5L11 7.5C11.3 8.56667 11.8292 9.35417 12.5875 9.8625C13.3458 10.3708 14.175 10.625 15.075 10.625C15.2583 10.625 15.4417 10.6125 15.625 10.5875C15.8083 10.5625 15.9917 10.5333 16.175 10.5L14.6 8.9L16 7.5L20 11.5L16 15.5L14.6 14.1L16.175 12.5C16.025 12.5333 15.8667 12.5583 15.7 12.575C15.5333 12.5917 15.3583 12.6 15.175 12.6C14.4417 12.6 13.7083 12.4875 12.975 12.2625C12.2417 12.0375 11.5833 11.6667 11 11.15L11 17.675L12.6 16.075L14 17.5L10 21.5L6 17.5L7.4 16.1L9 17.675L9 3.5L11 3.5Z" fill="white"/>
</g>
</svg>
