<svg width="16" height="16" fill="none" xmlns="http://www.w3.org/2000/svg"><mask id="a" style="mask-type:alpha" maskUnits="userSpaceOnUse" x="0" y="0" width="16" height="16"><path fill="#D9D9D9" d="M0 0h16v16H0z"/></mask><g mask="url(#a)"><path d="M7.616 12.863V8.297l-4-2.317v4.567l4 2.316zm1.333 0 4-2.316V5.98l-4 2.317v4.566zm-.667-5.716 3.95-2.284-3.95-2.283-3.95 2.283 3.95 2.284zM2.95 11.713a1.299 1.299 0 0 1-.667-1.15v-5.3a1.299 1.299 0 0 1 .667-1.15L7.616 1.43a1.31 1.31 0 0 1 1.333 0l4.667 2.683a1.298 1.298 0 0 1 .667 1.15v5.3a1.299 1.299 0 0 1-.667 1.15l-4.667 2.684a1.31 1.31 0 0 1-1.333 0l-4.667-2.684z" fill="#fff"/></g></svg>