<svg xmlns="http://www.w3.org/2000/svg" width="200" height="200">
    <path
        d="M12 33v21h42V12H12v21m48-18c0 2.667.333 3 3 3s3-.333 3-3-.333-3-3-3-3 .333-3 3m12 3v6h-3c-2.667 0-3 .333-3 3s-.333 3-3 3-3 .333-3 3 .333 3 3 3 3 .333 3 3 .333 3 3 3h3v12h-3c-2.667 0-3-.333-3-3s-.333-3-3-3-3 .333-3 3 .333 3 3 3 3 .333 3 3-.333 3-3 3h-3v12H48v-3c0-2.667.333-3 3-3s3-.333 3-3v-3H36v12h12v3c0 2.667-.333 3-3 3s-3 .333-3 3 .333 3 3 3 3 .333 3 3 .333 3 3 3 3-.333 3-3-.333-3-3-3-3-.333-3-3v-3h12v3c0 2.667.333 3 3 3s3 .333 3 3-.333 3-3 3-3 .333-3 3 .333 3 3 3c2.762 0 3 .278 3 3.5s.238 3.5 3 3.5h3v24h-3c-2.667 0-3-.333-3-3s-.333-3-3-3-3-.333-3-3 .333-3 3-3 3-.333 3-3-.333-3-3-3-3-.333-3-3-.333-3-3-3c-2.762 0-3-.278-3-3.5V96H42v7h12v6H30v6H18v3c0 2.667-.333 3-3 3s-3 .333-3 3 .333 3 3 3 3 .333 3 3-.333 3-3 3-3 .333-3 3 .333 3 3 3 3-.333 3-3 .333-3 3-3 3-.333 3-3 .333-3 3-3 3 .333 3 3 .333 3 3 3 3 .333 3 3v3h18v-3c0-2.667.333-3 3-3h3v12h18v-6h12v-3c0-2.667.333-3 3-3h3v12H84v6h12v6h13v18h-6v12h6v-12h6v-12h3c2.667 0 3 .333 3 3s.333 3 3 3h3v12h-3c-2.667 0-3 .333-3 3v3h24v-12h-12v-6h12v-6h12v3c0 2.667-.333 3-3 3h-3v12h3c2.667 0 3 .333 3 3s.333 3 3 3 3-.333 3-3-.333-3-3-3-3-.333-3-3v-3h12v-3c0-2.667-.333-3-3-3s-3-.333-3-3 .333-3 3-3 3-.333 3-3-.333-3-3-3h-3v-30h3c2.667 0 3-.333 3-3s.333-3 3-3 3 .333 3 3 .333 3 3 3 3 .333 3 3-.333 3-3 3h-3v12h-3c-2.667 0-3 .333-3 3s.333 3 3 3h3v12h3c2.667 0 3-.333 3-3s.333-3 3-3h3V90h-12v3c0 2.667-.333 3-3 3-2.762 0-3 .278-3 3.5v3.5h12v3c0 2.667-.333 3-3 3s-3 .333-3 3-.333 3-3 3-3-.333-3-3-.333-3-3-3-3 .333-3 3 .333 3 3 3 3 .333 3 3v3h-12v12h-3c-2.667 0-3-.333-3-3s-.333-3-3-3-3-.333-3-3 .333-3 3-3h3v-12h6V84h-3c-2.667 0-3-.333-3-3v-3h18v-3c0-2.667.333-3 3-3h3v12h3c2.667 0 3-.333 3-3s.333-3 3-3h3V60h-6v12h-3c-2.667 0-3-.333-3-3s-.333-3-3-3-3-.333-3-3-.333-3-3-3-3 .333-3 3 .333 3 3 3 3 .333 3 3v3h-12v-6h-12v-3c0-2.667-.333-3-3-3h-3V42h-3c-2.667 0-3-.333-3-3s.333-3 3-3 3-.333 3-3-.333-3-3-3-3-.333-3-3 .333-3 3-3h3V12h-3c-2.667 0-3 .333-3 3s-.333 3-3 3-3-.333-3-3-.333-3-3-3h-3v12h3c2.667 0 3 .333 3 3s.333 3 3 3 3 .333 3 3v3h-18v-3c0-2.667-.333-3-3-3s-3 .333-3 3v3H96v-3c0-2.762.278-3 3.5-3s3.5-.238 3.5-3c0-2.667.333-3 3-3s3-.333 3-3-.333-3-3-3-3-.333-3-3c0-2.762-.278-3-3.5-3s-3.5.238-3.5 3 .278 3 3.5 3 3.5.238 3.5 3v3H90v-3c0-2.667-.333-3-3-3s-3-.333-3-3v-3H72v6m73 15v21h42V12h-42v21M18 33v15h30V18H18v15m60-12c0 2.667-.333 3-3 3s-3 .333-3 3 .333 3 3 3 3-.333 3-3 .333-3 3-3 3 .333 3 3 .333 3 3 3 3-.333 3-3-.333-3-3-3-3-.333-3-3-.333-3-3-3-3 .333-3 3m73 12v15h30V18h-30v15M24 33v9h18V24H24v9m133 0v9h18V24h-18v9m-85 6c0 2.667.333 3 3 3s3-.333 3-3-.333-3-3-3-3 .333-3 3m12 3v6h-3c-2.667 0-3 .333-3 3s.333 3 3 3h3v12h-3c-2.667 0-3-.333-3-3s-.333-3-3-3h-3v18h-3c-2.667 0-3 .333-3 3s.333 3 3 3 3-.333 3-3v-3h18v-3c0-2.667.333-3 3-3h3v12h-6v12h-3c-2.762 0-3 .278-3 3.5s-.238 3.5-3 3.5h-3V90h-6v13h3c2.667 0 3 .333 3 3s.333 3 3 3 3 .333 3 3 .333 3 3 3 3 .333 3 3-.333 3-3 3-3 .333-3 3v3H72v3c0 2.667-.333 3-3 3s-3-.333-3-3-.333-3-3-3-3-.333-3-3-.333-3-3-3-3-.333-3-3 .333-3 3-3 3-.333 3-3-.333-3-3-3-3 .333-3 3v3H42v12h-3c-2.667 0-3 .333-3 3v3h18v-3c0-2.667.333-3 3-3s3 .333 3 3 .333 3 3 3 3 .333 3 3 .333 3 3 3 3-.333 3-3v-3h18v-3c0-2.667.333-3 3-3s3 .333 3 3c0 2.762.278 3 3.5 3s3.5-.238 3.5-3-.278-3-3.5-3-3.5-.238-3.5-3v-3h13v3c0 2.667.333 3 3 3s3 .333 3 3 .333 3 3 3 3 .333 3 3v3h-12v12h3c2.667 0 3-.333 3-3s.333-3 3-3 3-.333 3-3 .333-3 3-3 3 .333 3 3 .333 3 3 3 3-.333 3-3-.333-3-3-3-3-.333-3-3 .333-3 3-3 3-.333 3-3 .333-3 3-3 3 .333 3 3 .333 3 3 3 3-.333 3-3-.333-3-3-3-3-.333-3-3-.333-3-3-3h-3v-18h3c2.762 0 3-.278 3-3.5s-.238-3.5-3-3.5c-2.667 0-3-.333-3-3v-3h12v-6h-12v3c0 2.667-.333 3-3 3s-3-.333-3-3v-3h-24v-3c0-2.667.333-3 3-3s3-.333 3-3 .333-3 3-3 3 .333 3 3v3h36v-6h-12v-3c0-2.667-.333-3-3-3h-3V48h-3c-2.667 0-3 .333-3 3s-.333 3-3 3h-3V42h-3c-2.667 0-3-.333-3-3s-.333-3-3-3-3 .333-3 3v3H96v-6H84v6m25 6v6h6V42h-6v6m-25 3c0 2.667.333 3 3 3s3-.333 3-3-.333-3-3-3-3 .333-3 3m12 3v6h3.5c3.222 0 3.5.238 3.5 3s-.278 3-3.5 3-3.5.238-3.5 3 .278 3 3.5 3 3.5-.238 3.5-3c0-2.667.333-3 3-3s3-.333 3-3-.333-3-3-3h-3V48h-7v6M24 66v6h-3c-2.667 0-3-.333-3-3s-.333-3-3-3h-3v12h12v3c0 2.667.333 3 3 3s3 .333 3 3 .333 3 3 3 3-.333 3-3-.333-3-3-3-3-.333-3-3-.333-3-3-3-3-.333-3-3 .333-3 3-3h3V60h-6v6m91 3c0 2.667.333 3 3 3s3-.333 3-3-.333-3-3-3-3 .333-3 3M96 90v6h-3c-2.762 0-3 .278-3 3.5s-.238 3.5-3 3.5c-2.667 0-3 .333-3 3v3h12V96h7V84h-7v6m19 3c0 2.667-.333 3-3 3-2.762 0-3 .278-3 3.5s.238 3.5 3 3.5 3-.278 3-3.5.238-3.5 3-3.5c2.667 0 3-.333 3-3s-.333-3-3-3-3 .333-3 3m-97 9.5v6.5h3c2.667 0 3-.333 3-3s.333-3 3-3c2.762 0 3-.278 3-3.5V96H18v6.5m127-3c0 3.222.238 3.5 3 3.5s3-.278 3-3.5-.238-3.5-3-3.5-3 .278-3 3.5m-24 6.5v3h-18v6h12v3c0 2.667.333 3 3 3s3-.333 3-3 .333-3 3-3h3v-12h-3c-2.667 0-3 .333-3 3m-91 12c0 2.667.333 3 3 3s3-.333 3-3-.333-3-3-3-3 .333-3 3m-12 6c0 2.667.333 3 3 3s3-.333 3-3-.333-3-3-3-3 .333-3 3m30 0c0 2.667.333 3 3 3s3-.333 3-3-.333-3-3-3-3 .333-3 3m73 6c0 2.667.333 3 3 3s3-.333 3-3-.333-3-3-3-3 .333-3 3m18 18v9h18v-18h-18v9M12 166v21h42v-42H12v21m84-18c0 2.762.278 3 3.5 3s3.5-.238 3.5-3-.278-3-3.5-3-3.5.238-3.5 3m49 0c0 2.667.333 3 3 3s3-.333 3-3-.333-3-3-3-3 .333-3 3M18 166v15h30v-30H18v15m42-9v6h3c2.667 0 3 .333 3 3s-.333 3-3 3-3 .333-3 3 .333 3 3 3 3-.333 3-3 .333-3 3-3h3v18h3c2.667 0 3-.333 3-3s.333-3 3-3 3 .333 3 3v3h12v-3c0-2.667-.333-3-3-3s-3-.333-3-3 .333-3 3-3 3-.333 3-3c0-2.762.278-3 3.5-3s3.5-.238 3.5-3v-3H90v-3c0-2.667-.333-3-3-3s-3 .333-3 3 .333 3 3 3h3v12H78v-3c0-2.667-.333-3-3-3s-3-.333-3-3 .333-3 3-3h3v-12H60v6m61-3c0 2.667.333 3 3 3h3v12h6v-18h-12v3m-97 12v9h18v-18H24v9m42-6c0 2.667.333 3 3 3s3-.333 3-3-.333-3-3-3-3 .333-3 3m115 12c0 2.667-.333 3-3 3h-3v12h12v-3c0-2.667-.333-3-3-3s-3-.333-3-3 .333-3 3-3 3-.333 3-3-.333-3-3-3-3 .333-3 3"
        fill="#fff" fill-rule="evenodd" />
    <path
        d="M0 100.005V200.01l100.25-.255 100.25-.255.255-99.75L201.01 0H0v100.005m.481.495c0 55 .121 77.647.269 50.326.148-27.32.148-72.32 0-100C.602 23.147.481 45.5.481 100.5M12 33v21h42V12H12v21m48-18c0 2.667.333 3 3 3s3-.333 3-3-.333-3-3-3-3 .333-3 3m12 3v6h-3c-2.667 0-3 .333-3 3s-.333 3-3 3-3 .333-3 3 .333 3 3 3 3 .333 3 3 .333 3 3 3h3v12h-3c-2.667 0-3-.333-3-3s-.333-3-3-3-3 .333-3 3 .333 3 3 3 3 .333 3 3-.333 3-3 3h-3v12H48v-3c0-2.667.333-3 3-3s3-.333 3-3v-3H36v12h12v3c0 2.667-.333 3-3 3s-3 .333-3 3 .333 3 3 3 3 .333 3 3 .333 3 3 3 3-.333 3-3-.333-3-3-3-3-.333-3-3v-3h12v3c0 2.667.333 3 3 3s3 .333 3 3-.333 3-3 3-3 .333-3 3 .333 3 3 3c2.762 0 3 .278 3 3.5s.238 3.5 3 3.5h3v24h-3c-2.667 0-3-.333-3-3s-.333-3-3-3-3-.333-3-3 .333-3 3-3 3-.333 3-3-.333-3-3-3-3-.333-3-3-.333-3-3-3c-2.762 0-3-.278-3-3.5V96H42v7h12v6H30v6H18v3c0 2.667-.333 3-3 3s-3 .333-3 3 .333 3 3 3 3 .333 3 3-.333 3-3 3-3 .333-3 3 .333 3 3 3 3-.333 3-3 .333-3 3-3 3-.333 3-3 .333-3 3-3 3 .333 3 3 .333 3 3 3 3 .333 3 3v3h18v-3c0-2.667.333-3 3-3h3v12h18v-6h12v-3c0-2.667.333-3 3-3h3v12H84v6h12v6h13v18h-6v12h6v-12h6v-12h3c2.667 0 3 .333 3 3s.333 3 3 3h3v12h-3c-2.667 0-3 .333-3 3v3h24v-12h-12v-6h12v-6h12v3c0 2.667-.333 3-3 3h-3v12h3c2.667 0 3 .333 3 3s.333 3 3 3 3-.333 3-3-.333-3-3-3-3-.333-3-3v-3h12v-3c0-2.667-.333-3-3-3s-3-.333-3-3 .333-3 3-3 3-.333 3-3-.333-3-3-3h-3v-30h3c2.667 0 3-.333 3-3s.333-3 3-3 3 .333 3 3 .333 3 3 3 3 .333 3 3-.333 3-3 3h-3v12h-3c-2.667 0-3 .333-3 3s.333 3 3 3h3v12h3c2.667 0 3-.333 3-3s.333-3 3-3h3V90h-12v3c0 2.667-.333 3-3 3-2.762 0-3 .278-3 3.5v3.5h12v3c0 2.667-.333 3-3 3s-3 .333-3 3-.333 3-3 3-3-.333-3-3-.333-3-3-3-3 .333-3 3 .333 3 3 3 3 .333 3 3v3h-12v12h-3c-2.667 0-3-.333-3-3s-.333-3-3-3-3-.333-3-3 .333-3 3-3h3v-12h6V84h-3c-2.667 0-3-.333-3-3v-3h18v-3c0-2.667.333-3 3-3h3v12h3c2.667 0 3-.333 3-3s.333-3 3-3h3V60h-6v12h-3c-2.667 0-3-.333-3-3s-.333-3-3-3-3-.333-3-3-.333-3-3-3-3 .333-3 3 .333 3 3 3 3 .333 3 3v3h-12v-6h-12v-3c0-2.667-.333-3-3-3h-3V42h-3c-2.667 0-3-.333-3-3s.333-3 3-3 3-.333 3-3-.333-3-3-3-3-.333-3-3 .333-3 3-3h3V12h-3c-2.667 0-3 .333-3 3s-.333 3-3 3-3-.333-3-3-.333-3-3-3h-3v12h3c2.667 0 3 .333 3 3s.333 3 3 3 3 .333 3 3v3h-18v-3c0-2.667-.333-3-3-3s-3 .333-3 3v3H96v-3c0-2.762.278-3 3.5-3s3.5-.238 3.5-3c0-2.667.333-3 3-3s3-.333 3-3-.333-3-3-3-3-.333-3-3c0-2.762-.278-3-3.5-3s-3.5.238-3.5 3 .278 3 3.5 3 3.5.238 3.5 3v3H90v-3c0-2.667-.333-3-3-3s-3-.333-3-3v-3H72v6m73 15v21h42V12h-42v21M18 33v15h30V18H18v15m60-12c0 2.667-.333 3-3 3s-3 .333-3 3 .333 3 3 3 3-.333 3-3 .333-3 3-3 3 .333 3 3 .333 3 3 3 3-.333 3-3-.333-3-3-3-3-.333-3-3-.333-3-3-3-3 .333-3 3m73 12v15h30V18h-30v15M24 33v9h18V24H24v9m133 0v9h18V24h-18v9m-85 6c0 2.667.333 3 3 3s3-.333 3-3-.333-3-3-3-3 .333-3 3m12 3v6h-3c-2.667 0-3 .333-3 3s.333 3 3 3h3v12h-3c-2.667 0-3-.333-3-3s-.333-3-3-3h-3v18h-3c-2.667 0-3 .333-3 3s.333 3 3 3 3-.333 3-3v-3h18v-3c0-2.667.333-3 3-3h3v12h-6v12h-3c-2.762 0-3 .278-3 3.5s-.238 3.5-3 3.5h-3V90h-6v13h3c2.667 0 3 .333 3 3s.333 3 3 3 3 .333 3 3 .333 3 3 3 3 .333 3 3-.333 3-3 3-3 .333-3 3v3H72v3c0 2.667-.333 3-3 3s-3-.333-3-3-.333-3-3-3-3-.333-3-3-.333-3-3-3-3-.333-3-3 .333-3 3-3 3-.333 3-3-.333-3-3-3-3 .333-3 3v3H42v12h-3c-2.667 0-3 .333-3 3v3h18v-3c0-2.667.333-3 3-3s3 .333 3 3 .333 3 3 3 3 .333 3 3 .333 3 3 3 3-.333 3-3v-3h18v-3c0-2.667.333-3 3-3s3 .333 3 3c0 2.762.278 3 3.5 3s3.5-.238 3.5-3-.278-3-3.5-3-3.5-.238-3.5-3v-3h13v3c0 2.667.333 3 3 3s3 .333 3 3 .333 3 3 3 3 .333 3 3v3h-12v12h3c2.667 0 3-.333 3-3s.333-3 3-3 3-.333 3-3 .333-3 3-3 3 .333 3 3 .333 3 3 3 3-.333 3-3-.333-3-3-3-3-.333-3-3 .333-3 3-3 3-.333 3-3 .333-3 3-3 3 .333 3 3 .333 3 3 3 3-.333 3-3-.333-3-3-3-3-.333-3-3-.333-3-3-3h-3v-18h3c2.762 0 3-.278 3-3.5s-.238-3.5-3-3.5c-2.667 0-3-.333-3-3v-3h12v-6h-12v3c0 2.667-.333 3-3 3s-3-.333-3-3v-3h-24v-3c0-2.667.333-3 3-3s3-.333 3-3 .333-3 3-3 3 .333 3 3v3h36v-6h-12v-3c0-2.667-.333-3-3-3h-3V48h-3c-2.667 0-3 .333-3 3s-.333 3-3 3h-3V42h-3c-2.667 0-3-.333-3-3s-.333-3-3-3-3 .333-3 3v3H96v-6H84v6m25 6v6h6V42h-6v6m-25 3c0 2.667.333 3 3 3s3-.333 3-3-.333-3-3-3-3 .333-3 3m12 3v6h3.5c3.222 0 3.5.238 3.5 3s-.278 3-3.5 3-3.5.238-3.5 3 .278 3 3.5 3 3.5-.238 3.5-3c0-2.667.333-3 3-3s3-.333 3-3-.333-3-3-3h-3V48h-7v6M24 66v6h-3c-2.667 0-3-.333-3-3s-.333-3-3-3h-3v12h12v3c0 2.667.333 3 3 3s3 .333 3 3 .333 3 3 3 3-.333 3-3-.333-3-3-3-3-.333-3-3-.333-3-3-3-3-.333-3-3 .333-3 3-3h3V60h-6v6m91 3c0 2.667.333 3 3 3s3-.333 3-3-.333-3-3-3-3 .333-3 3M96 90v6h-3c-2.762 0-3 .278-3 3.5s-.238 3.5-3 3.5c-2.667 0-3 .333-3 3v3h12V96h7V84h-7v6m19 3c0 2.667-.333 3-3 3-2.762 0-3 .278-3 3.5s.238 3.5 3 3.5 3-.278 3-3.5.238-3.5 3-3.5c2.667 0 3-.333 3-3s-.333-3-3-3-3 .333-3 3m-97 9.5v6.5h3c2.667 0 3-.333 3-3s.333-3 3-3c2.762 0 3-.278 3-3.5V96H18v6.5m127-3c0 3.222.238 3.5 3 3.5s3-.278 3-3.5-.238-3.5-3-3.5-3 .278-3 3.5m-24 6.5v3h-18v6h12v3c0 2.667.333 3 3 3s3-.333 3-3 .333-3 3-3h3v-12h-3c-2.667 0-3 .333-3 3m-91 12c0 2.667.333 3 3 3s3-.333 3-3-.333-3-3-3-3 .333-3 3m-12 6c0 2.667.333 3 3 3s3-.333 3-3-.333-3-3-3-3 .333-3 3m30 0c0 2.667.333 3 3 3s3-.333 3-3-.333-3-3-3-3 .333-3 3m73 6c0 2.667.333 3 3 3s3-.333 3-3-.333-3-3-3-3 .333-3 3m18 18v9h18v-18h-18v9M12 166v21h42v-42H12v21m84-18c0 2.762.278 3 3.5 3s3.5-.238 3.5-3-.278-3-3.5-3-3.5.238-3.5 3m49 0c0 2.667.333 3 3 3s3-.333 3-3-.333-3-3-3-3 .333-3 3M18 166v15h30v-30H18v15m42-9v6h3c2.667 0 3 .333 3 3s-.333 3-3 3-3 .333-3 3 .333 3 3 3 3-.333 3-3 .333-3 3-3h3v18h3c2.667 0 3-.333 3-3s.333-3 3-3 3 .333 3 3v3h12v-3c0-2.667-.333-3-3-3s-3-.333-3-3 .333-3 3-3 3-.333 3-3c0-2.762.278-3 3.5-3s3.5-.238 3.5-3v-3H90v-3c0-2.667-.333-3-3-3s-3 .333-3 3 .333 3 3 3h3v12H78v-3c0-2.667-.333-3-3-3s-3-.333-3-3 .333-3 3-3h3v-12H60v6m61-3c0 2.667.333 3 3 3h3v12h6v-18h-12v3m-97 12v9h18v-18H24v9m42-6c0 2.667.333 3 3 3s3-.333 3-3-.333-3-3-3-3 .333-3 3m115 12c0 2.667-.333 3-3 3h-3v12h12v-3c0-2.667-.333-3-3-3s-3-.333-3-3 .333-3 3-3 3-.333 3-3-.333-3-3-3-3 .333-3 3"
        fill="#b4ac9c" fill-rule="evenodd" />
</svg>