<svg width="201" height="17" viewBox="0 0 201 17" fill="none" xmlns="http://www.w3.org/2000/svg">
<g clip-path="url(#clip0_40_409)">
<path d="M65.667 16.5277H69.0515V9.70929L74.1455 0.403114H70.2562L65.667 9.01824V16.5277ZM62.6954 7.46337H66.493L62.6954 0.403114H58.8864L62.6954 7.46337ZM55.1921 5.9776C55.1921 7.63613 54.2972 8.44236 52.5877 8.44236H49.3178V3.59347H52.4729C54.1824 3.59347 55.1921 4.31908 55.1921 5.9776ZM45.8186 16.5277H49.3178V11.6327H52.5877C52.7827 11.6327 52.9778 11.6212 53.1728 11.6097L55.7313 16.5277H59.4715L56.3394 10.6077C57.8309 9.58259 58.5537 7.88952 58.5537 5.9776C58.5537 2.85635 56.6377 0.403114 52.4729 0.403114H45.8186V16.5277ZM40.9884 8.44236H39.4166C39.4166 10.527 37.8677 12.0704 35.9288 12.0704V13.6483C33.0835 13.6483 31.0183 11.2872 31.0183 8.44236C31.0183 5.36718 32.854 3.30553 35.9288 3.30553C38.7741 3.30553 40.9884 5.48235 40.9884 8.44236ZM35.9288 16.8962V15.2377C39.6575 15.2377 42.457 12.3238 42.457 8.44236H44.1779C44.1779 3.84686 40.6213 0 35.9288 0C30.8921 0 27.6452 3.51285 27.6452 8.44236C27.6452 13.0379 31.2363 16.8962 35.9288 16.8962ZM19.0519 16.5277H22.5856V3.58196H27.6682V0.391596H13.9808V3.58196H19.0519V16.5277ZM6.91344 16.8962C10.4242 16.8962 13.2695 14.777 13.2695 11.2296C13.2695 7.88952 10.7799 5.56297 6.90196 5.56297V8.01621C5.11217 8.01621 3.80424 7.23302 3.80424 5.60904C3.80424 3.98507 4.94007 3.02911 6.99375 3.02911C8.68029 3.02911 9.70139 3.73168 9.9538 4.65309H13.0745C12.8335 2.08468 10.4242 0 6.92491 0C3.23059 0 0.603257 2.31503 0.603257 5.70118C0.603257 9.08734 3.33384 11.1144 6.90196 11.1144V8.77637C8.79502 8.77637 10.0915 9.62867 10.0915 11.2872C10.0915 12.9457 8.7606 13.8786 6.91344 13.8786C5.24985 13.8786 4.09107 13.1415 3.7354 12.128H0.5C0.958922 14.8 3.40268 16.8962 6.91344 16.8962Z" fill="white"/>
</g>
<g clip-path="url(#clip1_40_409)">
<path d="M174.577 8.44236C174.577 5.30959 176.547 3.24795 179.529 3.24795C182.512 3.24795 184.481 5.30959 184.481 8.44236C184.481 11.5751 182.512 13.6368 179.529 13.6368C176.547 13.6368 174.577 11.5751 174.577 8.44236ZM171.215 8.44236C171.215 13.4064 174.635 16.8847 179.529 16.8847C184.424 16.8847 187.844 13.4064 187.844 8.44236C187.844 3.4783 184.424 0 179.529 0C174.635 0 171.215 3.4783 171.215 8.44236ZM139.834 8.45388C139.834 5.32111 141.803 3.25946 144.785 3.25946C147.768 3.25946 149.737 5.32111 149.737 8.45388C149.737 11.5866 147.768 13.6483 144.785 13.6483C141.803 13.6483 139.834 11.5866 139.834 8.45388ZM136.471 8.45388C136.471 13.4179 139.891 16.8962 144.785 16.8962C149.68 16.8962 153.1 13.4179 153.1 8.45388C153.1 3.48982 149.68 0.0115175 144.785 0.0115175C139.891 0.0115175 136.471 3.48982 136.471 8.45388ZM109.362 8.44236C109.362 5.30959 111.331 3.24795 114.314 3.24795C117.297 3.24795 119.266 5.30959 119.266 8.44236C119.266 11.5751 117.297 13.6368 114.314 13.6368C111.331 13.6368 109.362 11.5751 109.362 8.44236ZM106 8.44236C106 13.4064 109.42 16.8847 114.314 16.8847C119.208 16.8847 122.629 13.4064 122.629 8.44236C122.629 3.4783 119.208 0 114.314 0C109.42 0 106 3.4783 106 8.44236ZM80.9637 8.44236V3.59347H83.7851C85.501 3.59347 86.5144 4.31908 86.5144 5.9776C86.5144 7.63613 85.6162 8.44236 83.9003 8.44236H80.9637ZM77.4513 16.5277H80.9637V11.6327H83.9003C87.9654 11.6327 89.8886 9.09886 89.8886 5.9776C89.8886 2.85635 87.9654 0.403114 83.7851 0.403114H77.4513V16.5277ZM189.721 16.5277H200.5V12.9918H193.268V0.391596H189.721V16.5277ZM127.845 16.5277H131.392V3.58196H136.494V0.391596H122.755V3.58196H127.845V16.5277ZM101.082 5.9776C101.082 7.63613 100.184 8.44236 98.468 8.44236H95.186V3.59347H98.3529C100.069 3.59347 101.082 4.31908 101.082 5.9776ZM91.6736 16.5277H95.186V11.6327H98.468C98.6638 11.6327 98.8596 11.6212 99.0553 11.6097L101.623 16.5277H105.378L102.234 10.6077C103.731 9.58259 104.456 7.88952 104.456 5.9776C104.456 2.85635 102.533 0.403114 98.3529 0.403114H91.6736V16.5277ZM162.647 16.8962C166.77 16.8962 169.683 14.3163 170.19 10.4694H166.793C166.343 12.4735 164.754 13.6483 162.566 13.6483C159.71 13.6483 157.914 11.5866 157.914 8.44236C157.914 5.29807 159.722 3.30553 162.532 3.30553C164.72 3.30553 166.205 4.46881 166.677 6.41527H170.075C169.407 2.60296 166.413 0 162.463 0C157.822 0 154.551 3.58196 154.551 8.45388C154.551 13.3258 157.787 16.8962 162.647 16.8962Z" fill="white"/>
</g>
<defs>
<clipPath id="clip0_40_409">
<rect width="73.6455" height="16.8962" fill="white" transform="translate(0.5)"/>
</clipPath>
<clipPath id="clip1_40_409">
<rect width="123.049" height="16.8962" fill="white" transform="translate(77.4513)"/>
</clipPath>
</defs>
</svg>
