<svg width="24" height="24" viewBox="0 0 24 24" fill="none" xmlns="http://www.w3.org/2000/svg">
  <mask id="mask0_119_342" style="mask-type:alpha" maskUnits="userSpaceOnUse" x="0" y="0" width="24"
    height="24">
    <rect width="24" height="24" fill="#D9D9D9" />
  </mask>
  <g mask="url(#mask0_119_342)">
    <path
      d="M4.88135 20.9433C4.33135 20.9433 3.86051 20.7475 3.46885 20.3558C3.07718 19.9641 2.88135 19.4933 2.88135 18.9433L2.88135 4.9433C2.88135 4.3933 3.07718 3.92247 3.46885 3.5308C3.86051 3.13913 4.33135 2.9433 4.88135 2.9433L11.8813 2.9433V4.9433L4.88135 4.9433L4.88135 18.9433L18.8813 18.9433V11.9433H20.8813L20.8813 18.9433C20.8813 19.4933 20.6855 19.9641 20.2938 20.3558C19.9022 20.7475 19.4313 20.9433 18.8813 20.9433L4.88135 20.9433ZM9.58135 15.6433L8.18135 14.2433L17.4813 4.9433H13.8813V2.9433L20.8813 2.9433V9.9433H18.8813V6.3433L9.58135 15.6433Z"
      fill="#282828" />
  </g>
</svg>
    